<svg width="25" height="25" viewBox="0 0 25 25" fill="none" xmlns="http://www.w3.org/2000/svg">
<path d="M12.5 2.96875C14.3125 2.96875 15.7813 4.4375 15.7813 6.25C15.7813 8.0625 14.3125 9.53125 12.5 9.53125C10.6875 9.53125 9.21875 8.0625 9.21875 6.25C9.21875 4.4375 10.6875 2.96875 12.5 2.96875ZM12.5 17.0312C17.1406 17.0312 22.0312 19.3125 22.0312 20.3125V22.0312H2.96875V20.3125C2.96875 19.3125 7.85938 17.0312 12.5 17.0312ZM12.5 0C9.04688 0 6.25 2.79688 6.25 6.25C6.25 9.70312 9.04688 12.5 12.5 12.5C15.9531 12.5 18.75 9.70312 18.75 6.25C18.75 2.79688 15.9531 0 12.5 0ZM12.5 14.0625C8.32812 14.0625 0 16.1562 0 20.3125V25H25V20.3125C25 16.1562 16.6719 14.0625 12.5 14.0625Z" fill="#163760"/>
</svg>
